<?xml version="1.0" standalone="no"?>
<!DOCTYPE svg PUBLIC "-//W3C//DTD SVG 20010904//EN"
 "http://www.w3.org/TR/2001/REC-SVG-20010904/DTD/svg10.dtd">
<svg version="1.0" xmlns="http://www.w3.org/2000/svg"
 width="150pt" height="84pt" viewBox="0 0 150 84"
 preserveAspectRatio="xMidYMid meet">

<g transform="translate(0.000000,168.000000) scale(0.100000,-0.100000)"
fill="#000000" stroke="none">
<path d="M30 840 l0 -630 115 0 115 0 0 90 c0 89 0 90 25 90 25 0 25 -1 25
-90 l0 -90 225 0 225 0 0 179 c0 99 3 186 6 195 8 21 40 21 48 0 3 -9 6 -96 6
-195 l0 -179 228 0 227 0 22 48 21 47 1 -47 1 -48 725 0 c799 0 764 -3 822 63
60 68 66 167 17 256 l-24 44 46 86 c26 47 53 97 61 111 14 24 12 32 -46 136
l-61 111 24 44 c49 89 43 188 -17 256 -58 66 -23 63 -822 63 l-725 0 -1 -47
-1 -48 -21 47 -22 48 -227 0 -228 0 0 -179 c0 -99 -3 -186 -6 -195 -8 -21 -40
-21 -48 0 -3 9 -6 96 -6 195 l0 179 -225 0 -225 0 0 -90 c0 -89 0 -90 -25 -90
l-25 0 0 135 0 135 -115 0 -115 0 0 -630z m180 445 l0 -135 75 0 75 0 0 93 0
92 65 0 65 0 0 -247 0 -248 -65 0 -65 0 0 100 0 100 -75 0 -75 0 0 -100 0
-100 -70 0 -70 0 0 290 0 290 70 0 70 0 0 -135z m500 -125 c3 -115 9 -183 18
-197 28 -49 112 -36 131 19 6 17 11 105 11 194 l0 164 60 0 60 0 0 -186 c0
-174 -1 -189 -22 -226 -58 -102 -226 -129 -319 -51 -59 50 -69 87 -69 279 0
94 3 174 7 178 4 4 32 6 63 4 l55 -3 5 -175z m578 68 c27 -62 58 -139 68 -170
21 -68 39 -77 30 -15 -3 23 -9 97 -12 164 l-7 121 62 4 61 3 0 -237 0 -238
-84 0 -84 0 -41 98 c-22 53 -52 129 -65 167 l-25 70 6 -163 c7 -186 9 -182
-69 -182 l-48 0 0 238 c0 131 3 242 7 245 3 4 39 7 78 7 l72 0 51 -112z m677
57 l0 -50 -62 -3 -63 -3 0 -122 0 -121 -32 -33 -32 -33 -33 32 -33 32 0 123 0
123 -65 0 -65 0 0 48 c0 27 3 52 7 56 4 3 90 5 192 4 l186 -3 0 -50z m433 -2
l3 -53 -110 0 -111 0 0 -45 0 -45 93 0 92 0 0 -48 -1 -47 -92 -3 -92 -3 0 -44
0 -45 115 0 115 0 0 -56 c0 -42 -3 -53 -12 -47 -7 4 -87 10 -178 13 l-165 5
-3 224 c-1 124 0 231 2 238 4 11 41 13 173 11 l168 -3 3 -52z m355 46 c114
-31 153 -180 67 -253 -17 -13 -30 -28 -30 -33 0 -4 23 -48 50 -97 28 -49 50
-90 50 -92 0 -2 -33 -4 -74 -4 l-73 0 -38 90 c-32 77 -41 90 -61 90 -23 0 -24
-2 -24 -90 l0 -90 -65 0 -65 0 0 238 c0 131 3 242 7 245 10 11 214 8 256 -4z
m-313 -234 c0 -57 -4 -95 -10 -95 -6 0 -10 38 -10 95 0 57 4 95 10 95 6 0 10
-38 10 -95z m-780 13 l0 -72 -22 22 -22 22 -38 -37 -38 -37 0 87 0 87 60 0 60
0 0 -72z m340 0 l0 -72 -28 27 -28 27 -27 -27 -27 -28 0 73 0 72 55 0 55 0 0
-72z m-30 -223 l-85 -85 83 -83 82 -83 -53 -52 c-29 -28 -55 -52 -59 -52 -3 0
-42 37 -87 83 l-81 82 -78 -83 c-42 -45 -82 -83 -87 -82 -6 0 -33 23 -60 50
l-49 50 82 83 82 82 -80 80 -80 79 52 53 c29 29 57 53 62 53 6 0 45 -34 86
-75 l75 -75 85 85 85 85 55 -55 55 -55 -85 -85z m-1660 -90 l0 -195 -25 0 -25
0 0 195 0 195 25 0 25 0 0 -195z m298 44 c16 -13 37 -29 47 -35 17 -9 15 -13
-19 -34 -21 -13 -51 -44 -67 -69 l-29 -45 0 140 1 139 19 -36 c11 -20 32 -47
48 -60z m422 -45 l0 -127 -23 34 c-12 19 -44 48 -69 65 l-47 32 29 12 c31 13
100 82 100 100 0 6 2 10 5 10 3 0 5 -57 5 -126z m535 86 c18 -19 17 -20 -3
-20 -15 0 -22 6 -22 20 0 11 2 20 3 20 2 0 12 -9 22 -20z m435 0 c0 -14 -7
-20 -22 -20 -20 0 -21 1 -3 20 10 11 20 20 22 20 1 0 3 -9 3 -20z m694 -127
c-9 -23 -18 -43 -20 -43 -2 0 -4 39 -3 88 l0 87 20 -44 c19 -42 19 -46 3 -88z
m-1230 64 c16 -12 16 -14 -4 -40 -12 -15 -29 -27 -38 -27 -15 1 -14 3 2 15 18
13 15 20 -6 16 -11 -1 -10 7 2 30 13 22 20 24 44 6z m757 3 c16 0 10 -23 -13
-47 -12 -13 -29 -23 -37 -23 -13 1 -12 3 3 15 18 13 15 20 -6 16 -11 -2 -10 6
4 29 7 11 19 18 26 15 8 -3 18 -5 23 -5z m-971 -17 c0 -22 -17 -50 -25 -42 -6
7 11 59 20 59 3 0 5 -8 5 -17z m38 -8 c14 -31 15 -35 4 -35 -4 0 -13 14 -19
30 -14 36 -1 40 15 5z m57 15 c3 -5 2 -10 -4 -10 -5 0 -13 5 -16 10 -3 6 -2
10 4 10 5 0 13 -4 16 -10z m665 -1 c0 -16 -20 -49 -29 -49 -5 0 -4 14 2 30 11
29 27 41 27 19z m40 -38 c-1 -10 -6 -7 -15 9 -19 33 -18 50 0 26 8 -11 15 -27
15 -35z m50 39 c0 -5 -4 -10 -9 -10 -6 0 -13 5 -16 10 -3 6 1 10 9 10 9 0 16
-4 16 -10z m-733 -36 c-28 -24 -47 -31 -47 -16 1 9 64 50 70 44 3 -2 -8 -15
-23 -28z m773 26 c0 -13 -41 -50 -57 -50 -7 0 -13 5 -13 10 0 6 6 10 13 10 8
0 22 9 32 20 20 22 25 24 25 10z m-570 -10 c0 -5 -16 -10 -35 -10 -19 0 -35 5
-35 10 0 6 16 10 35 10 19 0 35 -4 35 -10z m755 0 c4 -6 -10 -10 -34 -10 -23
0 -41 5 -41 10 0 6 15 10 34 10 19 0 38 -4 41 -10z m-1485 -41 c59 -13 116
-57 136 -106 9 -20 14 -70 14 -128 l0 -95 -60 0 -60 0 0 85 c0 99 -16 141 -57
151 -36 9 -75 -6 -90 -36 -7 -14 -13 -62 -13 -112 l0 -88 -59 0 -58 0 -6 80
c-6 90 3 142 31 179 23 31 72 61 115 71 46 11 51 11 107 -1z m-630 -104 l0
-105 75 0 75 0 0 105 0 105 65 0 65 0 0 -164 0 -164 -65 -4 c-47 -2 -65 0 -65
10 0 8 -23 12 -80 12 -47 0 -80 -4 -80 -10 0 -6 -27 -10 -60 -10 l-60 0 0 165
0 165 65 0 65 0 0 -105z m977 79 c14 -13 15 -34 10 -144 -4 -71 -10 -135 -13
-144 -4 -11 -19 -16 -49 -16 l-42 0 -6 107 c-4 58 -7 130 -7 160 l0 53 46 0
c28 0 51 -6 61 -16z m1223 -34 l0 -50 -115 0 -115 0 0 -50 0 -50 90 0 90 0 0
-45 0 -45 -90 0 c-79 0 -90 -2 -90 -17 0 -16 -8 -18 -60 -15 l-60 4 0 149 0
149 144 0 c86 0 147 4 151 10 3 6 17 10 31 10 22 0 24 -4 24 -50z m202 -41
l-3 -90 32 3 c30 3 34 8 67 91 l36 87 74 0 74 0 -48 -87 c-25 -49 -51 -92 -55
-97 -14 -15 -11 -22 16 -34 27 -12 58 -64 53 -90 -5 -27 -102 -17 -133 14 -20
20 -33 25 -68 22 -35 -2 -43 -7 -45 -25 -3 -21 -9 -23 -56 -23 l-53 0 -7 77
c-3 42 -6 114 -6 160 l0 83 63 0 62 0 -3 -91z m-1122 -81 l0 -153 -55 3 -56 4
7 90 c5 60 4 89 -3 85 -5 -4 -24 -46 -41 -94 l-32 -88 -50 3 c-27 2 -50 8 -50
13 0 12 62 178 90 242 l21 47 84 0 85 0 0 -152z m75 142 c-3 -5 -10 -10 -16
-10 -5 0 -9 5 -9 10 0 6 7 10 16 10 8 0 12 -4 9 -10z m435 0 c0 -5 -2 -10 -4
-10 -3 0 -8 5 -11 10 -3 6 -1 10 4 10 6 0 11 -4 11 -10z m-192 -73 c33 -34 33
-34 30 -123 l-3 -89 -54 -3 c-37 -2 -57 1 -62 10 -5 7 -9 51 -9 97 0 79 2 87
27 113 15 15 30 28 33 28 3 0 21 -15 38 -33z m632 -142 c0 -57 -4 -95 -10 -95
-6 0 -10 38 -10 95 0 57 4 95 10 95 6 0 10 -38 10 -95z m-807 42 l27 28 0 -78
0 -77 -60 0 -60 0 0 82 0 82 33 -32 33 -32 27 27z m367 -47 l0 -80 -55 0 -55
0 0 72 0 71 23 -21 23 -22 29 30 c16 17 30 30 32 30 2 0 3 -36 3 -80z"/>
<path d="M2620 1180 l0 -50 44 0 c48 0 76 19 76 50 0 31 -28 50 -76 50 l-44 0
0 -50z"/>
<path d="M1860 965 l-85 -85 -80 80 -81 80 -42 -43 -42 -43 80 -79 80 -80 -82
-82 -82 -83 39 -40 39 -40 83 82 83 83 78 -78 c42 -42 82 -77 87 -77 5 0 26
17 47 37 l38 37 -82 83 -83 83 85 85 85 85 -40 40 -40 40 -85 -85z"/>
</g>
</svg>
