<?xml version="1.0" standalone="no"?>
<!DOCTYPE svg PUBLIC "-//W3C//DTD SVG 20010904//EN"
 "http://www.w3.org/TR/2001/REC-SVG-20010904/DTD/svg10.dtd">
<svg version="1.0" xmlns="http://www.w3.org/2000/svg"
 width="820.000000pt" height="484.000000pt" viewBox="0 0 820.000000 484.000000"
 preserveAspectRatio="xMidYMid meet">

<g transform="translate(0.000000,484.000000) scale(0.100000,-0.100000)"
fill="#000000" stroke="none">
<path d="M815 4431 c-4 -8 37 -63 87 -116 5 -6 144 -12 355 -15 l346 -5 97
-175 c345 -623 833 -1517 833 -1526 0 -6 -156 -294 -347 -640 -191 -346 -445
-806 -564 -1021 l-217 -393 -237 0 -237 0 -35 -37 c-64 -70 -79 -93 -64 -98 7
-3 380 -4 828 -3 l815 3 0 65 0 65 -192 5 -191 5 386 722 c287 535 390 718
398 710 6 -7 154 -273 329 -592 175 -319 351 -638 390 -710 l71 -130 -200 -3
c-126 -1 -204 -6 -213 -13 -17 -15 -17 -103 1 -118 10 -8 241 -10 852 -9 l839
3 0 65 0 65 -201 5 -202 5 400 720 c219 396 402 723 406 727 6 6 792 -1428
792 -1446 0 -3 -89 -6 -198 -6 -141 0 -201 -3 -210 -12 -7 -7 -12 -33 -12 -58
0 -25 5 -51 12 -58 14 -14 1643 -18 1652 -3 3 4 -23 36 -58 70 l-64 61 -224 0
-223 1 -560 1004 c-308 553 -564 1015 -568 1027 -7 19 68 161 442 835 248 447
460 831 471 853 l20 40 322 0 322 0 58 60 c32 32 58 64 58 70 0 16 -1632 14
-1648 -2 -16 -16 -16 -100 0 -116 9 -9 106 -12 376 -12 l364 0 -54 -98 c-151
-280 -814 -1471 -818 -1472 -3 0 -202 352 -442 783 l-437 782 97 2 c146 4 142
2 142 73 0 54 -2 60 -22 65 -13 3 -399 4 -858 3 l-835 -3 0 -65 0 -65 117 -5
117 -5 -420 -760 c-231 -418 -426 -770 -432 -782 -11 -20 -52 49 -443 760
l-430 782 350 3 c237 1 354 6 363 13 16 14 17 101 1 117 -15 15 -1643 18
-1653 3z"/>
</g>
</svg>
